<svg width="91" height="29" viewBox="0 0 91 29" fill="none" xmlns="http://www.w3.org/2000/svg">
<path d="M0.954545 8.19602V5.54545H14.8807V8.19602H9.4858V23H6.34943V8.19602H0.954545ZM19.7253 23V5.54545H22.8873V12.9347H30.9753V5.54545H34.1458V23H30.9753V15.5852H22.8873V23H19.7253ZM42.9066 5.54545V23H39.7447V5.54545H42.9066ZM68.4397 23V5.54545H71.6016V13.5653H71.8147L78.6244 5.54545H82.4852L75.7352 13.3778L82.5448 23H78.7437L73.5363 15.517L71.6016 17.8011V23H68.4397Z" fill="#1F2937"/>
<path d="M62.8344 5.54545V23H60.0219L51.7975 11.1108H51.6526V23H48.4907V5.54545H51.3202L59.5361 17.4432H59.6895V5.54545H62.8344Z" fill="#B0E9CA"/>
<rect x="87" y="19" width="4" height="4" fill="#1F2937"/>
</svg>
