<svg width="83" height="18" viewBox="0 0 83 18" fill="none" xmlns="http://www.w3.org/2000/svg">
<path d="M0.954545 3.19602V0.545454H14.8807V3.19602H9.4858V18H6.34943V3.19602H0.954545ZM19.7253 18V0.545454H22.8873V7.93466H30.9753V0.545454H34.1458V18H30.9753V10.5852H22.8873V18H19.7253ZM42.9066 0.545454V18H39.7447V0.545454H42.9066ZM68.4397 18V0.545454H71.6016V8.56534H71.8147L78.6244 0.545454H82.4852L75.7352 8.37784L82.5448 18H78.7437L73.5363 10.517L71.6016 12.8011V18H68.4397Z" fill="#1F2937"/>
<path d="M62.8344 0.545454V18H60.0219L51.7975 6.1108H51.6526V18H48.4907V0.545454H51.3202L59.5361 12.4432H59.6895V0.545454H62.8344Z" fill="#B0E9CA"/>
</svg>
